<svg width="24" height="24" viewBox="0 0 24 24" fill="none" xmlns="http://www.w3.org/2000/svg">
<g id="icons/24/filter">
<path id="Path 2" fill-rule="evenodd" clip-rule="evenodd" d="M5.00005 3.70911H19.0025C19.94 3.70911 20.7 4.46912 20.7 5.40663V5.99019C20.7 6.44082 20.5211 6.873 20.2026 7.19178L14.7 12.6981V17.3225C14.7 17.8518 14.4538 18.3476 14.0397 18.6676L13.9105 18.7582L11.9105 20.0265C11.6382 20.1991 11.3225 20.2908 11 20.2908C10.0612 20.2908 9.30005 19.5297 9.30005 18.5908V12.7011L3.80395 7.25926C3.52179 6.97989 3.34761 6.61195 3.30847 6.22033L3.30005 6.05123V5.40911C3.30005 4.47022 4.06116 3.70911 5.00005 3.70911ZM19.0025 5.10911H5.00005C4.83436 5.10911 4.70005 5.24342 4.70005 5.40911V6.05123C4.70005 6.13131 4.73207 6.20807 4.78897 6.26441L10.4926 11.9117C10.6253 12.0432 10.7 12.2223 10.7 12.4091V18.5908C10.7 18.7565 10.8344 18.8908 11 18.8908C11.0569 18.8908 11.1127 18.8746 11.1607 18.8442L13.1607 17.5759C13.2475 17.5208 13.3 17.4253 13.3 17.3225V12.4091C13.3 12.2236 13.3737 12.0456 13.5049 11.9143L19.2123 6.20223C19.2685 6.14598 19.3 6.06971 19.3 5.99019V5.40663C19.3 5.24231 19.1668 5.10911 19.0025 5.10911Z" fill="#5F6C7A"/>
</g>
</svg>
