<svg width="18" height="16" viewBox="0 0 18 16" fill="none" xmlns="http://www.w3.org/2000/svg">
<g id="Group 245">
<path id="Stroke 1" d="M17.5353 4.00154C17.8106 4.27295 17.8138 4.71615 17.5424 4.99147C17.2981 5.23925 16.9147 5.2666 16.6398 5.07174L16.5525 4.99855L14.0009 2.48201L11.4471 4.99868C11.1993 5.24288 10.8155 5.26464 10.5434 5.06579L10.4572 4.99134C10.213 4.74349 10.1912 4.35971 10.3901 4.08763L10.4645 4.00142L13.5093 1.00142C13.7546 0.759731 14.1337 0.735607 14.4057 0.929017L14.4921 1.00154L17.5353 4.00154Z" fill="#5F6C7A"/>
<path id="Path 3" d="M13.9559 13.8C14.3425 13.8 14.6559 14.1134 14.6559 14.5C14.6559 14.8544 14.3925 15.1473 14.0508 15.1937L13.9559 15.2H0.955859C0.56926 15.2 0.255859 14.8866 0.255859 14.5C0.255859 14.1457 0.519203 13.8528 0.860874 13.8064L0.955859 13.8H13.9559Z" fill="#5F6C7A"/>
<path id="Stroke 2" d="M14.6558 10.5C14.6558 10.8866 14.3424 11.2 13.9558 11.2C13.6014 11.2 13.3085 10.9367 13.2622 10.595L13.2558 10.5V2.50005C13.2558 2.11345 13.5692 1.80005 13.9558 1.80005C14.3101 1.80005 14.603 2.06339 14.6494 2.40506L14.6558 2.50005V10.5Z" fill="#5F6C7A"/>
<path id="Path 3_2" d="M5.95586 1.80005C6.34246 1.80005 6.65586 2.11345 6.65586 2.50005C6.65586 2.85443 6.39252 3.14731 6.05085 3.19366L5.95586 3.20005H0.955859C0.56926 3.20005 0.255859 2.88665 0.255859 2.50005C0.255859 2.14567 0.519203 1.85279 0.860874 1.80644L0.955859 1.80005H5.95586Z" fill="#5F6C7A"/>
<path id="Path 3_3" d="M8.95586 7.80005C9.34246 7.80005 9.65586 8.11345 9.65586 8.50005C9.65586 8.85443 9.39252 9.14731 9.05085 9.19366L8.95586 9.20005H0.955859C0.56926 9.20005 0.255859 8.88665 0.255859 8.50005C0.255859 8.14567 0.519203 7.85279 0.860874 7.80644L0.955859 7.80005H8.95586Z" fill="#5F6C7A"/>
</g>
</svg>
